<svg id="visual" viewBox="0 0 900 600" width="900" height="600" xmlns="http://www.w3.org/2000/svg" xmlns:xlink="http://www.w3.org/1999/xlink" version="1.1"><rect x="0" y="0" width="900" height="600" fill="#111111"></rect><defs><linearGradient id="grad1_0" x1="33.3%" y1="0%" x2="100%" y2="100%"><stop offset="20%" stop-color="#fbae3c" stop-opacity="1"></stop><stop offset="80%" stop-color="#fbae3c" stop-opacity="1"></stop></linearGradient></defs><defs><linearGradient id="grad1_1" x1="33.3%" y1="0%" x2="100%" y2="100%"><stop offset="20%" stop-color="#fbae3c" stop-opacity="1"></stop><stop offset="80%" stop-color="#d09136" stop-opacity="1"></stop></linearGradient></defs><defs><linearGradient id="grad1_2" x1="33.3%" y1="0%" x2="100%" y2="100%"><stop offset="20%" stop-color="#a67530" stop-opacity="1"></stop><stop offset="80%" stop-color="#d09136" stop-opacity="1"></stop></linearGradient></defs><defs><linearGradient id="grad1_3" x1="33.3%" y1="0%" x2="100%" y2="100%"><stop offset="20%" stop-color="#a67530" stop-opacity="1"></stop><stop offset="80%" stop-color="#7d5a29" stop-opacity="1"></stop></linearGradient></defs><defs><linearGradient id="grad1_4" x1="33.3%" y1="0%" x2="100%" y2="100%"><stop offset="20%" stop-color="#574022" stop-opacity="1"></stop><stop offset="80%" stop-color="#7d5a29" stop-opacity="1"></stop></linearGradient></defs><defs><linearGradient id="grad1_5" x1="33.3%" y1="0%" x2="100%" y2="100%"><stop offset="20%" stop-color="#574022" stop-opacity="1"></stop><stop offset="80%" stop-color="#34281a" stop-opacity="1"></stop></linearGradient></defs><defs><linearGradient id="grad1_6" x1="33.3%" y1="0%" x2="100%" y2="100%"><stop offset="20%" stop-color="#111111" stop-opacity="1"></stop><stop offset="80%" stop-color="#34281a" stop-opacity="1"></stop></linearGradient></defs><defs><linearGradient id="grad2_0" x1="0%" y1="0%" x2="66.7%" y2="100%"><stop offset="20%" stop-color="#fbae3c" stop-opacity="1"></stop><stop offset="80%" stop-color="#fbae3c" stop-opacity="1"></stop></linearGradient></defs><defs><linearGradient id="grad2_1" x1="0%" y1="0%" x2="66.7%" y2="100%"><stop offset="20%" stop-color="#d09136" stop-opacity="1"></stop><stop offset="80%" stop-color="#fbae3c" stop-opacity="1"></stop></linearGradient></defs><defs><linearGradient id="grad2_2" x1="0%" y1="0%" x2="66.7%" y2="100%"><stop offset="20%" stop-color="#d09136" stop-opacity="1"></stop><stop offset="80%" stop-color="#a67530" stop-opacity="1"></stop></linearGradient></defs><defs><linearGradient id="grad2_3" x1="0%" y1="0%" x2="66.7%" y2="100%"><stop offset="20%" stop-color="#7d5a29" stop-opacity="1"></stop><stop offset="80%" stop-color="#a67530" stop-opacity="1"></stop></linearGradient></defs><defs><linearGradient id="grad2_4" x1="0%" y1="0%" x2="66.7%" y2="100%"><stop offset="20%" stop-color="#7d5a29" stop-opacity="1"></stop><stop offset="80%" stop-color="#574022" stop-opacity="1"></stop></linearGradient></defs><defs><linearGradient id="grad2_5" x1="0%" y1="0%" x2="66.7%" y2="100%"><stop offset="20%" stop-color="#34281a" stop-opacity="1"></stop><stop offset="80%" stop-color="#574022" stop-opacity="1"></stop></linearGradient></defs><defs><linearGradient id="grad2_6" x1="0%" y1="0%" x2="66.7%" y2="100%"><stop offset="20%" stop-color="#34281a" stop-opacity="1"></stop><stop offset="80%" stop-color="#111111" stop-opacity="1"></stop></linearGradient></defs><g transform="translate(900, 0)"><path d="M0 324.5C-35.6 304.2 -71.1 284 -112.5 271.6C-153.9 259.3 -201.1 254.9 -229.5 229.5C-257.8 204.1 -267.2 157.7 -279.9 116C-292.6 74.2 -308.6 37.1 -324.5 0L0 0Z" fill="#231d16"></path><path d="M0 278.1C-30.5 260.8 -61 243.4 -96.4 232.8C-131.9 222.2 -172.4 218.4 -196.7 196.7C-221 174.9 -229.1 135.2 -239.9 99.4C-250.8 63.6 -264.5 31.8 -278.1 0L0 0Z" fill="#45341e"></path><path d="M0 231.8C-25.4 217.3 -50.8 202.8 -80.4 194C-109.9 185.2 -143.7 182 -163.9 163.9C-184.1 145.8 -190.9 112.6 -200 82.8C-209 53 -220.4 26.5 -231.8 0L0 0Z" fill="#6a4d26"></path><path d="M0 185.4C-20.3 173.8 -40.6 162.3 -64.3 155.2C-87.9 148.2 -114.9 145.6 -131.1 131.1C-147.3 116.6 -152.7 90.1 -160 66.3C-167.2 42.4 -176.3 21.2 -185.4 0L0 0Z" fill="#91672d"></path><path d="M0 139.1C-15.2 130.4 -30.5 121.7 -48.2 116.4C-66 111.1 -86.2 109.2 -98.3 98.3C-110.5 87.5 -114.5 67.6 -120 49.7C-125.4 31.8 -132.2 15.9 -139.1 0L0 0Z" fill="#ba8333"></path><path d="M0 92.7C-10.2 86.9 -20.3 81.1 -32.1 77.6C-44 74.1 -57.5 72.8 -65.6 65.6C-73.7 58.3 -76.4 45.1 -80 33.1C-83.6 21.2 -88.2 10.6 -92.7 0L0 0Z" fill="#e59f39"></path><path d="M0 46.4C-5.1 43.5 -10.2 40.6 -16.1 38.8C-22 37 -28.7 36.4 -32.8 32.8C-36.8 29.2 -38.2 22.5 -40 16.6C-41.8 10.6 -44.1 5.3 -46.4 0L0 0Z" fill="#fbae3c"></path></g><g transform="translate(0, 600)"><path d="M0 -324.5C36.9 -305.2 73.9 -285.9 112.5 -271.6C151.2 -257.4 191.6 -248.2 224.9 -224.9C258.2 -201.5 284.4 -164 299.8 -124.2C315.2 -84.3 319.9 -42.2 324.5 0L0 0Z" fill="#231d16"></path><path d="M0 -278.1C31.7 -261.6 63.3 -245 96.4 -232.8C129.6 -220.6 164.2 -212.7 192.7 -192.7C221.3 -172.7 243.7 -140.6 257 -106.4C270.2 -72.3 274.2 -36.1 278.1 0L0 0Z" fill="#45341e"></path><path d="M0 -231.8C26.4 -218 52.8 -204.2 80.4 -194C108 -183.8 136.8 -177.3 160.6 -160.6C184.4 -143.9 203.1 -117.2 214.1 -88.7C225.2 -60.2 228.5 -30.1 231.8 0L0 0Z" fill="#6a4d26"></path><path d="M0 -185.4C21.1 -174.4 42.2 -163.4 64.3 -155.2C86.4 -147.1 109.5 -141.8 128.5 -128.5C147.5 -115.2 162.5 -93.7 171.3 -71C180.1 -48.2 182.8 -24.1 185.4 0L0 0Z" fill="#91672d"></path><path d="M0 -139.1C15.8 -130.8 31.7 -122.5 48.2 -116.4C64.8 -110.3 82.1 -106.4 96.4 -96.4C110.6 -86.4 121.9 -70.3 128.5 -53.2C135.1 -36.1 137.1 -18.1 139.1 0L0 0Z" fill="#ba8333"></path><path d="M0 -92.7C10.6 -87.2 21.1 -81.7 32.1 -77.6C43.2 -73.5 54.7 -70.9 64.2 -64.2C73.8 -57.6 81.2 -46.9 85.7 -35.5C90.1 -24.1 91.4 -12 92.7 0L0 0Z" fill="#e59f39"></path><path d="M0 -46.4C5.3 -43.6 10.6 -40.8 16.1 -38.8C21.6 -36.8 27.4 -35.5 32.1 -32.1C36.9 -28.8 40.6 -23.4 42.8 -17.7C45 -12 45.7 -6 46.4 0L0 0Z" fill="#fbae3c"></path></g></svg>